<svg xmlns="http://www.w3.org/2000/svg" xmlns:xlink="http://www.w3.org/1999/xlink" width="364.372" height="168.819" viewBox="0 0 364.372 168.819">
  <defs>
    <clipPath id="clip-path">
      <rect id="Rectángulo_2" data-name="Rectángulo 2" width="363.806" height="168.254" transform="translate(278.728 173.874)" fill="none"/>
    </clipPath>
  </defs>
  <g id="Grupo_6" data-name="Grupo 6" transform="translate(-278.445 -173.592)">
    <rect id="Rectángulo_1" data-name="Rectángulo 1" width="364.372" height="168.819" transform="translate(278.445 173.592)" fill="none"/>
    <rect id="Rectángulo_3" data-name="Rectángulo 3" width="40.018" height="109.58" transform="translate(292.384 198.585)" fill="#8d8279"/>
    <rect id="Rectángulo_4" data-name="Rectángulo 4" width="40.018" height="109.58" transform="translate(345.155 198.585)" fill="#8d8279"/>
    <rect id="Rectángulo_5" data-name="Rectángulo 5" width="40.018" height="109.58" transform="translate(397.925 198.585)" fill="#8d8279"/>
    <rect id="Rectángulo_6" data-name="Rectángulo 6" width="40.018" height="109.58" transform="translate(450.696 198.585)" fill="#8d8279"/>
    <g id="Grupo_5" data-name="Grupo 5">
      <g id="Grupo_4" data-name="Grupo 4" clip-path="url(#clip-path)">
        <g id="Grupo_7" data-name="Grupo 7">
          <path id="Trazado_1" data-name="Trazado 1" d="M516.034,204.18h-.059c-1.087-1.727-2.44-2.9-4.292-2.9-2.851,0-4.879,2.94-4.879,6.394,0,3.417,1.881,6.394,4.762,6.394,1.969,0,3.351-1.1,4.5-2.977h.059v3.932a6.585,6.585,0,0,1-4.38,1.764c-4.174,0-7.349-3.895-7.349-9.113,0-5.145,3.322-9.113,7.379-9.113a6.5,6.5,0,0,1,4.262,1.727Z" fill="#870a26"/>
          <path id="Trazado_2" data-name="Trazado 2" d="M531.2,216.306H528.85v-2.388h-.059a5.477,5.477,0,0,1-4.762,2.866c-4.057,0-6.614-4.3-6.614-9.077,0-4.924,2.5-9.149,6.643-9.149a5.664,5.664,0,0,1,4.733,2.939h.059v-2.461H531.2Zm-11.376-8.819c0,3.38,1.587,6.578,4.527,6.578,3.028,0,4.615-3.051,4.615-6.541,0-3.454-1.734-6.247-4.644-6.247-2.734,0-4.5,2.976-4.5,6.21" fill="#870a26"/>
          <path id="Trazado_3" data-name="Trazado 3" d="M537.668,192.531a1.718,1.718,0,1,1-3.351,0,1.718,1.718,0,1,1,3.351,0m-.5,23.775h-2.352V199.035h2.352Z" fill="#870a26"/>
          <path id="Trazado_4" data-name="Trazado 4" d="M539.549,199.035h2.881l3.615,5.879,3.616-5.879h2.94l-5.056,8.084,5.732,9.187h-2.851l-4.381-7.019-4.409,7.019H538.7l5.879-9.187Z" fill="#870a26"/>
          <path id="Trazado_5" data-name="Trazado 5" d="M566.976,216.306h-2.352v-2.388h-.059a5.477,5.477,0,0,1-4.762,2.866c-4.057,0-6.614-4.3-6.614-9.077,0-4.924,2.5-9.149,6.643-9.149a5.666,5.666,0,0,1,4.733,2.939h.059v-2.461h2.352ZM555.6,207.487c0,3.38,1.587,6.578,4.527,6.578,3.028,0,4.616-3.051,4.616-6.541,0-3.454-1.735-6.247-4.645-6.247-2.734,0-4.5,2.976-4.5,6.21" fill="#870a26"/>
          <path id="Trazado_6" data-name="Trazado 6" d="M518.385,251.5h-2.351v-2.388h-.059a5.477,5.477,0,0,1-4.762,2.866c-4.057,0-6.614-4.3-6.614-9.077,0-4.924,2.5-9.149,6.643-9.149a5.665,5.665,0,0,1,4.733,2.94h.059v-2.462h2.351Zm-11.376-8.819c0,3.381,1.587,6.578,4.527,6.578,3.028,0,4.615-3.051,4.615-6.541,0-3.455-1.734-6.247-4.644-6.247-2.734,0-4.5,2.976-4.5,6.21" fill="#870a26"/>
          <path id="Trazado_7" data-name="Trazado 7" d="M523.911,236.32h.059a4.456,4.456,0,0,1,3.939-2.572c3.821,0,4.7,3.454,4.7,7.5V251.5h-2.351v-9.738c0-2.792-.177-5.291-2.911-5.291-3.233,0-3.439,3.748-3.439,6.835V251.5h-2.352v-17.27h2.352Z" fill="#870a26"/>
          <path id="Trazado_8" data-name="Trazado 8" d="M546.164,249.108H546.1a5.552,5.552,0,0,1-4.762,2.866c-4.057,0-6.614-4.3-6.614-9.077,0-4.924,2.5-9.149,6.643-9.149a5.665,5.665,0,0,1,4.733,2.94h.059V221.181h2.351V251.5h-2.351Zm-9.025-6.431c0,3.381,1.587,6.578,4.527,6.578,3.028,0,4.615-3.051,4.615-6.541,0-3.455-1.734-6.247-4.644-6.247-2.734,0-4.5,2.976-4.5,6.21" fill="#870a26"/>
          <path id="Trazado_9" data-name="Trazado 9" d="M550.455,242.9c0-5.071,3.2-9.15,7.261-9.15s7.261,4.079,7.261,9.15-3.233,9.076-7.261,9.076-7.261-4.006-7.261-9.076m2.352-.037c0,3.527,2,6.394,4.909,6.394s4.909-2.867,4.909-6.394c0-3.491-2-6.394-4.909-6.394s-4.909,2.9-4.909,6.394" fill="#870a26"/>
          <path id="Trazado_10" data-name="Trazado 10" d="M569.268,236.1h.059c.823-1.36,1.528-2.352,3.057-2.352a3.6,3.6,0,0,1,2.117.808l-1.117,2.683c-.471-.4-.794-.772-1.412-.772-2.586,0-2.7,4.153-2.7,6.394v8.635h-2.352v-17.27h2.352Z" fill="#870a26"/>
          <path id="Trazado_11" data-name="Trazado 11" d="M577.94,236.1H578c.823-1.36,1.528-2.352,3.057-2.352a3.6,3.6,0,0,1,2.117.808l-1.117,2.683c-.471-.4-.794-.772-1.412-.772-2.586,0-2.7,4.153-2.7,6.394v8.635h-2.352v-17.27h2.352Z" fill="#870a26"/>
          <path id="Trazado_12" data-name="Trazado 12" d="M596.988,251.5h-2.352v-2.388h-.059a5.474,5.474,0,0,1-4.761,2.866c-4.057,0-6.615-4.3-6.615-9.077,0-4.924,2.5-9.149,6.644-9.149a5.662,5.662,0,0,1,4.732,2.94h.059v-2.462h2.352Zm-11.376-8.819c0,3.381,1.587,6.578,4.527,6.578,3.028,0,4.615-3.051,4.615-6.541,0-3.455-1.735-6.247-4.644-6.247-2.734,0-4.5,2.976-4.5,6.21" fill="#870a26"/>
          <path id="Trazado_13" data-name="Trazado 13" d="M602.514,236.32h.059a4.456,4.456,0,0,1,3.939-2.572c3.821,0,4.7,3.454,4.7,7.5V251.5h-2.351v-9.738c0-2.792-.177-5.291-2.91-5.291-3.234,0-3.44,3.748-3.44,6.835V251.5h-2.352v-17.27h2.352Z" fill="#870a26"/>
          <path id="Trazado_14" data-name="Trazado 14" d="M627.119,251.5h-2.352v-2.388h-.059a5.477,5.477,0,0,1-4.762,2.866c-4.057,0-6.614-4.3-6.614-9.077,0-4.924,2.5-9.149,6.643-9.149a5.663,5.663,0,0,1,4.733,2.94h.059v-2.462h2.352Zm-11.377-8.819c0,3.381,1.587,6.578,4.527,6.578,3.028,0,4.616-3.051,4.616-6.541,0-3.455-1.735-6.247-4.645-6.247-2.734,0-4.5,2.976-4.5,6.21" fill="#870a26"/>
          <path id="Trazado_15" data-name="Trazado 15" d="M511.36,273.42c-.323-.919-1.029-1.764-1.881-1.764a1.867,1.867,0,0,0-1.705,1.911c0,1.58,1.587,2.168,3.2,3.013a5.117,5.117,0,0,1,3.2,4.961c0,3.27-2.117,5.622-4.674,5.622-2.322,0-4.145-1.654-4.88-4.373l2.087-1.1c.588,1.617,1.265,2.756,2.822,2.756a2.377,2.377,0,0,0,2.235-2.646c0-3.858-6.233-2.535-6.233-7.974,0-2.9,1.882-4.887,4.116-4.887,1.587,0,3.057,1.4,3.674,3.2Z" fill="#870a26"/>
          <path id="Trazado_16" data-name="Trazado 16" d="M517.5,278.675c.029,3.2,1.852,5.769,4.527,5.769,2,0,3.292-1.507,4.2-3.564l2,1.433c-1.323,3.086-3.558,4.85-6.379,4.85-4.116,0-6.762-3.932-6.762-8.893,0-5.107,2.381-9.333,6.7-9.333,4.439,0,6.79,4.593,6.555,9.738Zm8.378-2.5c-.324-2.5-2-4.52-4.057-4.52-2.028,0-3.91,2.021-4.2,4.52Z" fill="#870a26"/>
          <path id="Trazado_17" data-name="Trazado 17" d="M542.872,285.84c0,2.756,0,5.144-1.411,7.422a6.235,6.235,0,0,1-5.351,3.051c-3.85,0-6.7-3.051-6.79-7.938h2.352c.029,3.2,1.881,5.218,4.409,5.218,3.645,0,4.439-3.344,4.439-7.239V284.3h-.059a5.76,5.76,0,0,1-4.791,2.866c-4.028,0-6.585-4.226-6.585-9.04,0-4.85,2.587-9.186,6.673-9.186a5.468,5.468,0,0,1,4.7,2.94h.059v-2.463h2.352Zm-11.377-7.974c0,3.381,1.588,6.578,4.527,6.578,3.028,0,4.616-3.051,4.616-6.541,0-3.455-1.735-6.247-4.645-6.247-2.734,0-4.5,2.976-4.5,6.21" fill="#870a26"/>
          <path id="Trazado_18" data-name="Trazado 18" d="M548.456,279.042c0,2.9.265,5.4,3.116,5.4s3.116-2.5,3.116-5.4v-9.628h2.352v9.959c0,4.593-1.382,7.79-5.468,7.79s-5.468-3.2-5.468-7.79v-9.959h2.352Z" fill="#870a26"/>
          <path id="Trazado_19" data-name="Trazado 19" d="M562.389,271.289h.059c.823-1.36,1.528-2.352,3.057-2.352a3.6,3.6,0,0,1,2.117.808l-1.117,2.683c-.471-.4-.794-.772-1.412-.772-2.586,0-2.7,4.153-2.7,6.394v8.635h-2.352v-17.27h2.352Z" fill="#870a26"/>
          <path id="Trazado_20" data-name="Trazado 20" d="M570,278.675c.029,3.2,1.852,5.769,4.527,5.769,2,0,3.292-1.507,4.2-3.564l2,1.433c-1.323,3.086-3.557,4.85-6.379,4.85-4.116,0-6.762-3.932-6.762-8.893,0-5.107,2.381-9.333,6.7-9.333,4.439,0,6.79,4.593,6.555,9.738Zm8.378-2.5c-.324-2.5-2-4.52-4.057-4.52-2.028,0-3.91,2.021-4.2,4.52Z" fill="#870a26"/>
          <path id="Trazado_21" data-name="Trazado 21" d="M585.376,286.685h-2.352V272.134h-1.44v-2.72h1.44v-6.209h2.352v6.209h2.469v2.72h-2.469Z" fill="#870a26"/>
          <path id="Trazado_22" data-name="Trazado 22" d="M601.4,286.685h-2.352V284.3h-.059a5.477,5.477,0,0,1-4.762,2.866c-4.057,0-6.614-4.3-6.614-9.077,0-4.924,2.5-9.149,6.643-9.149a5.665,5.665,0,0,1,4.733,2.94h.059v-2.463H601.4Zm-11.377-8.819c0,3.381,1.587,6.578,4.527,6.578,3.028,0,4.616-3.051,4.616-6.541,0-3.455-1.735-6.247-4.646-6.247-2.733,0-4.5,2.976-4.5,6.21" fill="#870a26"/>
          <path id="Trazado_23" data-name="Trazado 23" d="M607.04,286.685h-2.352V272.134h-1.44v-2.72h1.44v-6.209h2.352v6.209h2.469v2.72H607.04Z" fill="#870a26"/>
          <path id="Trazado_24" data-name="Trazado 24" d="M511.36,308.61c-.323-.919-1.029-1.764-1.881-1.764a1.867,1.867,0,0,0-1.705,1.911c0,1.58,1.587,2.168,3.2,3.013a5.117,5.117,0,0,1,3.2,4.961c0,3.27-2.117,5.622-4.674,5.622-2.322,0-4.145-1.654-4.88-4.373l2.087-1.1c.588,1.617,1.265,2.756,2.822,2.756a2.377,2.377,0,0,0,2.235-2.646c0-3.858-6.233-2.535-6.233-7.974,0-2.9,1.882-4.887,4.116-4.887,1.587,0,3.057,1.4,3.674,3.2Z" fill="#870a26"/>
          <path id="Trazado_25" data-name="Trazado 25" d="M515.092,313.277c0-5.071,3.2-9.15,7.261-9.15s7.261,4.079,7.261,9.15-3.234,9.076-7.261,9.076-7.261-4.006-7.261-9.076m2.352-.037c0,3.527,2,6.394,4.909,6.394s4.909-2.867,4.909-6.394c0-3.491-2-6.394-4.909-6.394s-4.909,2.9-4.909,6.394" fill="#870a26"/>
          <path id="Trazado_26" data-name="Trazado 26" d="M541.931,309.749h-.059c-1.088-1.727-2.44-2.9-4.292-2.9-2.851,0-4.88,2.94-4.88,6.394,0,3.417,1.882,6.394,4.763,6.394,1.969,0,3.351-1.1,4.5-2.977h.059v3.932a6.587,6.587,0,0,1-4.38,1.764c-4.174,0-7.349-3.895-7.349-9.113,0-5.145,3.322-9.113,7.378-9.113a6.492,6.492,0,0,1,4.263,1.727Z" fill="#870a26"/>
          <path id="Trazado_27" data-name="Trazado 27" d="M547.78,298.1a1.718,1.718,0,1,1-3.351,0,1.717,1.717,0,1,1,3.351,0m-.5,23.775h-2.352V304.6h2.352Z" fill="#870a26"/>
          <path id="Trazado_28" data-name="Trazado 28" d="M563.625,321.875h-2.352v-2.388h-.059a5.477,5.477,0,0,1-4.762,2.866c-4.057,0-6.614-4.3-6.614-9.077,0-4.924,2.5-9.149,6.643-9.149a5.665,5.665,0,0,1,4.733,2.94h.059v-2.462h2.352Zm-11.377-8.819c0,3.381,1.587,6.578,4.527,6.578,3.028,0,4.616-3.051,4.616-6.541,0-3.455-1.735-6.247-4.645-6.247-2.734,0-4.5,2.976-4.5,6.21" fill="#870a26"/>
          <rect id="Rectángulo_7" data-name="Rectángulo 7" width="2.352" height="30.315" transform="translate(566.74 291.56)" fill="#870a26"/>
        </g>
        <path id="Trazado_29" data-name="Trazado 29" d="M323.514,268.983l5.016,3.334q-1.578,16.263-5.675,24.8t-10.019,8.538q-6.127,0-9.967-6.565t-5.843-19.018a168.308,168.308,0,0,1-2-26.739,143.517,143.517,0,0,1,2.262-27.183q2.262-11.6,6.438-17.622t9.192-6.021q5.686,0,9.566,7.62t5.4,21.433l-4.938,3.062q-1.318-10.886-3.826-15.854T312.81,213.8q-4.369,0-7.3,5.512t-4.124,14.8a150.7,150.7,0,0,0-1.189,19.154,153.158,153.158,0,0,0,1.409,22.215q1.408,9.492,4.382,14.186t6.438,4.7q4.215,0,7.136-6.4t3.956-18.983" fill="#ffed9d"/>
        <path id="Trazado_30" data-name="Trazado 30" d="M346.817,303.956l14.557-99.747h5.4l15.513,99.747h-5.714l-4.421-30.21H356.306l-4.163,30.21ZM357.754,263H370.6l-3.956-27.624q-1.811-12.588-2.689-20.685-.723,9.594-2.042,19.052Z" fill="#ffed9d"/>
        <path id="Trazado_31" data-name="Trazado 31" d="M402.833,271.909l4.732-1.089a61.979,61.979,0,0,0,1.564,12.282,18.6,18.6,0,0,0,3.813,7.756,7.613,7.613,0,0,0,5.818,2.96,6.891,6.891,0,0,0,5.067-2.245,13.849,13.849,0,0,0,3.271-6.158,32.218,32.218,0,0,0,1.073-8.539,29.111,29.111,0,0,0-1.034-8.2,13.627,13.627,0,0,0-3.413-5.885,43.346,43.346,0,0,0-6.748-4.865,21.887,21.887,0,0,1-11.364-15.513A53.268,53.268,0,0,1,404.281,230a58.5,58.5,0,0,1,1.629-14.118q1.629-6.565,4.757-9.968a9.309,9.309,0,0,1,6.955-3.4,9.76,9.76,0,0,1,7.434,3.572q3.219,3.573,4.951,10.512a69.362,69.362,0,0,1,1.861,15.718l-4.809.952q-.387-9.456-2.624-14.288t-6.606-4.831a6.92,6.92,0,0,0-6.632,4.389,24.534,24.534,0,0,0-2.081,10.58,22.8,22.8,0,0,0,1.473,8.845q1.449,3.47,7.563,7.11t8.39,6.362a25.837,25.837,0,0,1,4.887,10.172,57.473,57.473,0,0,1,1.577,14.187,62.679,62.679,0,0,1-1.732,15q-1.732,7.042-4.977,10.955t-7.3,3.912a11.036,11.036,0,0,1-8.623-3.946q-3.479-3.945-5.456-11.873a77.615,77.615,0,0,1-2.081-17.929" fill="#ffed9d"/>
        <path id="Trazado_32" data-name="Trazado 32" d="M455.4,271.909l4.732-1.089A61.979,61.979,0,0,0,461.7,283.1a18.584,18.584,0,0,0,3.814,7.756,7.61,7.61,0,0,0,5.817,2.96,6.891,6.891,0,0,0,5.067-2.245,13.849,13.849,0,0,0,3.271-6.158,32.218,32.218,0,0,0,1.073-8.539,29.111,29.111,0,0,0-1.034-8.2,13.627,13.627,0,0,0-3.413-5.885,43.346,43.346,0,0,0-6.748-4.865,21.887,21.887,0,0,1-11.364-15.513A53.268,53.268,0,0,1,456.853,230a58.5,58.5,0,0,1,1.629-14.118q1.629-6.565,4.757-9.968a9.309,9.309,0,0,1,6.955-3.4,9.76,9.76,0,0,1,7.434,3.572q3.219,3.573,4.951,10.512a69.306,69.306,0,0,1,1.861,15.718l-4.809.952q-.387-9.456-2.624-14.288t-6.606-4.831a6.92,6.92,0,0,0-6.632,4.389,24.533,24.533,0,0,0-2.081,10.58,22.8,22.8,0,0,0,1.473,8.845q1.449,3.47,7.563,7.11t8.39,6.362A25.824,25.824,0,0,1,484,261.6a57.474,57.474,0,0,1,1.577,14.187,62.681,62.681,0,0,1-1.732,15q-1.732,7.042-4.977,10.955t-7.3,3.912a11.036,11.036,0,0,1-8.623-3.946q-3.479-3.945-5.456-11.873a77.615,77.615,0,0,1-2.081-17.929" fill="#ffed9d"/>
        <rect id="Rectángulo_8" data-name="Rectángulo 8" width="40.018" height="14.046" transform="translate(292.384 308.164)" fill="#870a26"/>
        <rect id="Rectángulo_9" data-name="Rectángulo 9" width="40.018" height="14.046" transform="translate(345.155 308.164)" fill="#870a26"/>
        <rect id="Rectángulo_10" data-name="Rectángulo 10" width="40.018" height="14.046" transform="translate(397.925 308.164)" fill="#870a26"/>
        <rect id="Rectángulo_11" data-name="Rectángulo 11" width="40.018" height="14.046" transform="translate(450.696 308.164)" fill="#870a26"/>
      </g>
    </g>
  </g>
</svg>
